<?xml version="1.0" encoding="UTF-8"?>
<!DOCTYPE svg PUBLIC "-//W3C//DTD SVG 1.1//EN" "http://www.w3.org/Graphics/SVG/1.1/DTD/svg11.dtd">
<svg xmlns="http://www.w3.org/2000/svg" version="1.1" width="500px" height="500px" style="shape-rendering:geometricPrecision; text-rendering:geometricPrecision; image-rendering:optimizeQuality; fill-rule:evenodd; clip-rule:evenodd" xmlns:xlink="http://www.w3.org/1999/xlink">
<g><path style="opacity:1" fill="#fefefe" d="M -0.5,-0.5 C 166.167,-0.5 332.833,-0.5 499.5,-0.5C 499.5,166.167 499.5,332.833 499.5,499.5C 332.833,499.5 166.167,499.5 -0.5,499.5C -0.5,332.833 -0.5,166.167 -0.5,-0.5 Z"/></g>
<g><path style="opacity:1" fill="#e9bf2a" d="M 406.5,103.5 C 446.117,155.534 456.284,212.867 437,275.5C 391.196,243.69 345.363,212.024 299.5,180.5C 280.684,161.259 258.35,147.926 232.5,140.5C 230.152,138.903 227.486,137.903 224.5,137.5C 222.139,137.326 219.806,136.993 217.5,136.5C 214.373,135.419 211.04,134.753 207.5,134.5C 196.676,133.341 186.01,133.341 175.5,134.5C 170.878,134.156 166.545,134.823 162.5,136.5C 144.276,139.278 127.276,145.445 111.5,155C 103.422,160.029 95.7554,165.529 88.5,171.5C 109.393,103.108 154.393,59.608 223.5,41C 296.587,27.2438 357.587,48.0771 406.5,103.5 Z"/></g>
<g><path style="opacity:1" fill="#60c0c5" d="M 207.5,134.5 C 207.918,135.222 208.584,135.722 209.5,136C 212.146,136.497 214.813,136.664 217.5,136.5C 219.806,136.993 222.139,137.326 224.5,137.5C 226.698,139.397 229.364,140.397 232.5,140.5C 258.35,147.926 280.684,161.259 299.5,180.5C 303.897,184.892 307.897,189.558 311.5,194.5C 347.249,248.552 349.749,304.219 319,361.5C 282.621,416.433 231.454,440.266 165.5,433C 157.185,430.886 148.852,429.219 140.5,428C 115.23,440.137 89.8967,451.97 64.5,463.5C 68.3357,437.985 72.3357,412.485 76.5,387C 76.4581,385.033 75.9581,383.199 75,381.5C 48.4996,349.763 36.4996,313.097 39,271.5C 43.5385,232.091 60.0385,198.757 88.5,171.5C 95.7554,165.529 103.422,160.029 111.5,155C 127.276,145.445 144.276,139.278 162.5,136.5C 167.1,136.72 171.433,136.054 175.5,134.5C 186.01,133.341 196.676,133.341 207.5,134.5 Z"/></g>
<g><path style="opacity:1" fill="#85bf9f" d="M 175.5,134.5 C 171.433,136.054 167.1,136.72 162.5,136.5C 166.545,134.823 170.878,134.156 175.5,134.5 Z"/></g>
<g><path style="opacity:1" fill="#97bf8c" d="M 207.5,134.5 C 211.04,134.753 214.373,135.419 217.5,136.5C 214.813,136.664 212.146,136.497 209.5,136C 208.584,135.722 207.918,135.222 207.5,134.5 Z"/></g>
<g><path style="opacity:1" fill="#93bf91" d="M 224.5,137.5 C 227.486,137.903 230.152,138.903 232.5,140.5C 229.364,140.397 226.698,139.397 224.5,137.5 Z"/></g>
<g><path style="opacity:1" fill="#da9c2c" d="M 406.5,103.5 C 447.881,148.653 463.381,201.653 453,262.5C 447.627,287.638 437.793,310.805 423.5,332C 431.566,361.1 439.233,390.267 446.5,419.5C 414.814,411.216 383.314,402.216 352,392.5C 346.195,394.371 340.695,396.704 335.5,399.5C 330.835,400.057 326.502,401.39 322.5,403.5C 315.364,404.933 308.197,406.266 301,407.5C 299.93,407.472 299.097,407.139 298.5,406.5C 340.413,366.59 356.246,317.923 346,260.5C 339.984,235.463 328.484,213.463 311.5,194.5C 307.897,189.558 303.897,184.892 299.5,180.5C 345.363,212.024 391.196,243.69 437,275.5C 456.284,212.867 446.117,155.534 406.5,103.5 Z"/></g>
<g><path style="opacity:1" fill="#549caa" d="M 311.5,194.5 C 328.484,213.463 339.984,235.463 346,260.5C 356.246,317.923 340.413,366.59 298.5,406.5C 255.007,441.91 206.174,451.91 152,436.5C 122.191,448.325 92.3574,459.992 62.5,471.5C 62.5597,468.659 63.2264,465.993 64.5,463.5C 89.8967,451.97 115.23,440.137 140.5,428C 148.852,429.219 157.185,430.886 165.5,433C 231.454,440.266 282.621,416.433 319,361.5C 349.749,304.219 347.249,248.552 311.5,194.5 Z"/></g>
<g><path style="opacity:1" fill="#e7e8e6" d="M 124.5,265.5 C 130.793,282.124 126.126,294.624 110.5,303C 102.579,305.377 94.9122,304.877 87.5,301.5C 74.0687,292.447 70.5687,280.447 77,265.5C 86.969,250.845 99.8023,247.679 115.5,256C 118.732,259.062 121.732,262.229 124.5,265.5 Z"/></g>
<g><path style="opacity:1" fill="#e7e8e6" d="M 211.5,265.5 C 216.788,278.811 214.121,290.311 203.5,300C 194.025,305.281 184.358,305.781 174.5,301.5C 161.074,292.474 157.574,280.474 164,265.5C 173.969,250.845 186.802,247.679 202.5,256C 205.732,259.062 208.732,262.229 211.5,265.5 Z"/></g>
<g><path style="opacity:1" fill="#e7e8e6" d="M 298.5,266.5 C 303.387,278.797 301.053,289.63 291.5,299C 281.934,305.242 271.934,306.075 261.5,301.5C 246.829,291.796 243.663,279.13 252,263.5C 262.411,250.583 274.911,248.083 289.5,256C 293.114,259.103 296.114,262.603 298.5,266.5 Z"/></g>
<g><path style="opacity:1" fill="#549cab" d="M 211.5,265.5 C 222.878,273.995 226.045,284.995 221,298.5C 215.088,310.042 205.588,315.209 192.5,314C 184.538,312.53 178.538,308.363 174.5,301.5C 184.358,305.781 194.025,305.281 203.5,300C 214.121,290.311 216.788,278.811 211.5,265.5 Z"/></g>
<g><path style="opacity:1" fill="#549cab" d="M 124.5,265.5 C 136.033,273.946 139.2,284.946 134,298.5C 128.017,310.055 118.517,315.222 105.5,314C 97.5208,312.524 91.5208,308.357 87.5,301.5C 94.9122,304.877 102.579,305.377 110.5,303C 126.126,294.624 130.793,282.124 124.5,265.5 Z"/></g>
<g><path style="opacity:1" fill="#559dab" d="M 261.5,301.5 C 271.934,306.075 281.934,305.242 291.5,299C 301.053,289.63 303.387,278.797 298.5,266.5C 304.371,269.285 308.204,274.285 310,281.5C 311.312,300.685 302.479,311.685 283.5,314.5C 273.664,314.237 266.33,309.904 261.5,301.5 Z"/></g>
<g><path style="opacity:1" fill="#f5e2c2" d="M 335.5,399.5 C 331.498,401.61 327.165,402.943 322.5,403.5C 326.502,401.39 330.835,400.057 335.5,399.5 Z"/></g>
</svg>
