<svg width="500" height="500" viewBox="0 0 500 500" fill="none" xmlns="http://www.w3.org/2000/svg">
<path fill-rule="evenodd" clip-rule="evenodd" d="M406.5 103.5C446.117 155.534 456.284 212.867 437 275.5C391.196 243.69 345.363 212.024 299.5 180.5C280.684 161.259 258.35 147.926 232.5 140.5C230.152 138.903 227.486 137.903 224.5 137.5C222.139 137.326 219.806 136.993 217.5 136.5C214.373 135.419 211.04 134.753 207.5 134.5C196.676 133.341 186.01 133.341 175.5 134.5C170.878 134.156 166.545 134.823 162.5 136.5C144.276 139.278 127.276 145.445 111.5 155C103.422 160.029 95.7554 165.529 88.5 171.5C109.393 103.108 154.393 59.608 223.5 41C296.587 27.2438 357.587 48.0771 406.5 103.5Z" fill="#E9BF2A"/>
<path fill-rule="evenodd" clip-rule="evenodd" d="M207.5 134.5C207.918 135.222 208.584 135.722 209.5 136C212.146 136.497 214.813 136.664 217.5 136.5C219.806 136.993 222.139 137.326 224.5 137.5C226.698 139.397 229.364 140.397 232.5 140.5C258.35 147.926 280.684 161.259 299.5 180.5C303.897 184.892 307.897 189.558 311.5 194.5C347.249 248.552 349.749 304.219 319 361.5C282.621 416.433 231.454 440.266 165.5 433C157.185 430.886 148.852 429.219 140.5 428C115.23 440.137 89.8967 451.97 64.5 463.5C68.3357 437.985 72.3357 412.485 76.5 387C76.4581 385.033 75.9581 383.199 75 381.5C48.4996 349.763 36.4996 313.097 39 271.5C43.5385 232.091 60.0385 198.757 88.5 171.5C95.7554 165.529 103.422 160.029 111.5 155C127.276 145.445 144.276 139.278 162.5 136.5C167.1 136.72 171.433 136.054 175.5 134.5C186.01 133.341 196.676 133.341 207.5 134.5Z" fill="#60C0C5"/>
<path fill-rule="evenodd" clip-rule="evenodd" d="M175.5 134.5C171.433 136.054 167.1 136.72 162.5 136.5C166.545 134.823 170.878 134.156 175.5 134.5Z" fill="#85BF9F"/>
<path fill-rule="evenodd" clip-rule="evenodd" d="M207.5 134.5C211.04 134.753 214.373 135.419 217.5 136.5C214.813 136.664 212.146 136.497 209.5 136C208.584 135.722 207.918 135.222 207.5 134.5Z" fill="#97BF8C"/>
<path fill-rule="evenodd" clip-rule="evenodd" d="M224.5 137.5C227.486 137.903 230.152 138.903 232.5 140.5C229.364 140.397 226.698 139.397 224.5 137.5Z" fill="#93BF91"/>
<path fill-rule="evenodd" clip-rule="evenodd" d="M406.5 103.5C447.881 148.653 463.381 201.653 453 262.5C447.627 287.638 437.793 310.805 423.5 332C431.566 361.1 439.233 390.267 446.5 419.5C414.814 411.216 383.314 402.216 352 392.5C346.195 394.371 340.695 396.704 335.5 399.5C330.835 400.057 326.502 401.39 322.5 403.5C315.364 404.933 308.197 406.266 301 407.5C299.93 407.472 299.097 407.139 298.5 406.5C340.413 366.59 356.246 317.923 346 260.5C339.984 235.463 328.484 213.463 311.5 194.5C307.897 189.558 303.897 184.892 299.5 180.5C345.363 212.024 391.196 243.69 437 275.5C456.284 212.867 446.117 155.534 406.5 103.5Z" fill="#DA9C2C"/>
<path fill-rule="evenodd" clip-rule="evenodd" d="M311.5 194.5C328.484 213.463 339.984 235.463 346 260.5C356.246 317.923 340.413 366.59 298.5 406.5C255.007 441.91 206.174 451.91 152 436.5C122.191 448.325 92.3574 459.992 62.5 471.5C62.5597 468.659 63.2264 465.993 64.5 463.5C89.8967 451.97 115.23 440.137 140.5 428C148.852 429.219 157.185 430.886 165.5 433C231.454 440.266 282.621 416.433 319 361.5C349.749 304.219 347.249 248.552 311.5 194.5Z" fill="#549CAA"/>
<path fill-rule="evenodd" clip-rule="evenodd" d="M124.5 265.5C130.793 282.124 126.126 294.624 110.5 303C102.579 305.377 94.9122 304.877 87.5 301.5C74.0687 292.447 70.5687 280.447 77 265.5C86.969 250.845 99.8023 247.679 115.5 256C118.732 259.062 121.732 262.229 124.5 265.5Z" fill="#E7E8E6"/>
<path fill-rule="evenodd" clip-rule="evenodd" d="M211.5 265.5C216.788 278.811 214.121 290.311 203.5 300C194.025 305.281 184.358 305.781 174.5 301.5C161.074 292.474 157.574 280.474 164 265.5C173.969 250.845 186.802 247.679 202.5 256C205.732 259.062 208.732 262.229 211.5 265.5Z" fill="#E7E8E6"/>
<path fill-rule="evenodd" clip-rule="evenodd" d="M298.5 266.5C303.387 278.797 301.053 289.63 291.5 299C281.934 305.242 271.934 306.075 261.5 301.5C246.829 291.796 243.663 279.13 252 263.5C262.411 250.583 274.911 248.083 289.5 256C293.114 259.103 296.114 262.603 298.5 266.5Z" fill="#E7E8E6"/>
<path fill-rule="evenodd" clip-rule="evenodd" d="M211.5 265.5C222.878 273.995 226.045 284.995 221 298.5C215.088 310.042 205.588 315.209 192.5 314C184.538 312.53 178.538 308.363 174.5 301.5C184.358 305.781 194.025 305.281 203.5 300C214.121 290.311 216.788 278.811 211.5 265.5Z" fill="#549CAB"/>
<path fill-rule="evenodd" clip-rule="evenodd" d="M124.5 265.5C136.033 273.946 139.2 284.946 134 298.5C128.017 310.055 118.517 315.222 105.5 314C97.5208 312.524 91.5208 308.357 87.5 301.5C94.9122 304.877 102.579 305.377 110.5 303C126.126 294.624 130.793 282.124 124.5 265.5Z" fill="#549CAB"/>
<path fill-rule="evenodd" clip-rule="evenodd" d="M261.5 301.5C271.934 306.075 281.934 305.242 291.5 299C301.053 289.63 303.387 278.797 298.5 266.5C304.371 269.285 308.204 274.285 310 281.5C311.312 300.685 302.479 311.685 283.5 314.5C273.664 314.237 266.33 309.904 261.5 301.5Z" fill="#559DAB"/>
<path fill-rule="evenodd" clip-rule="evenodd" d="M335.5 399.5C331.498 401.61 327.165 402.943 322.5 403.5C326.502 401.39 330.835 400.057 335.5 399.5Z" fill="#F5E2C2"/>
</svg>
