<svg width="24" height="24" viewBox="0 0 24 24" fill="none" xmlns="http://www.w3.org/2000/svg">
<path fill-rule="evenodd" clip-rule="evenodd" d="M14.425 10.125L10.025 14.525L7.125 17.425L5.225 19.325C5.125 19.425 4.925 19.525 4.725 19.525C4.525 19.525 4.325 19.425 4.225 19.325C3.925 19.025 3.925 18.525 4.225 18.225L5.625 16.825C4.325 15.625 3.125 14.125 2.225 12.525C1.925 12.025 1.925 11.425 2.225 10.925C4.025 7.525 7.725 4.025 11.725 4.025C13.325 4.025 15.025 4.625 16.625 5.725L18.125 4.225C18.425 3.925 18.925 3.925 19.225 4.225C19.525 4.525 19.525 5.025 19.225 5.325L14.425 10.125ZM6.525 15.825L8.425 13.925C8.025 13.325 7.825 12.525 7.825 11.825C7.825 10.725 8.225 9.725 8.925 9.025C10.225 7.725 12.325 7.525 13.825 8.625L15.525 6.925C14.225 6.025 12.925 5.625 11.625 5.625C8.725 5.625 5.425 8.125 3.425 11.725V11.925C4.225 13.425 5.325 14.725 6.525 15.825ZM10.025 10.125C9.525 10.625 9.325 11.225 9.325 11.825C9.325 12.125 9.325 12.525 9.525 12.825L12.825 9.725C11.925 9.225 10.725 9.425 10.025 10.125ZM19.325 8.22499C20.025 9.02499 20.725 9.92499 21.225 10.925C21.525 11.425 21.525 12.025 21.225 12.625C19.425 16.025 15.725 19.525 11.725 19.525C10.825 19.525 9.82496 19.425 8.92496 19.025C8.52496 18.825 8.42496 18.425 8.52496 18.025C8.72496 17.625 9.12496 17.525 9.52496 17.625C10.225 17.825 11.025 18.025 11.725 18.025C14.625 18.025 17.925 15.525 19.925 11.925V11.725C19.425 10.825 18.925 10.025 18.225 9.22499C17.925 8.82499 17.925 8.42499 18.225 8.12499C18.625 7.82499 19.025 7.92499 19.325 8.22499Z" fill="#323232"/>
</svg>
