<svg width="24" height="24" viewBox="0 0 24 24" fill="none" xmlns="http://www.w3.org/2000/svg">
<path fill-rule="evenodd" clip-rule="evenodd" d="M3.52913 11.639C5.48413 8.024 8.86513 5.5 11.7511 5.5C14.6371 5.5 18.0191 8.024 19.9731 11.636C20.0101 11.706 20.0101 11.793 19.9751 11.86C18.0191 15.475 14.6381 18 11.7511 18C8.86513 18 5.48413 15.475 3.52913 11.86C3.52813 11.859 3.52813 11.859 3.52813 11.858C3.49213 11.792 3.49313 11.707 3.52913 11.639ZM2.21013 12.575C4.07513 16.022 7.74813 19.5 11.7511 19.5C15.7551 19.5 19.4291 16.021 21.2941 12.573C21.5711 12.059 21.5721 11.444 21.2941 10.925C19.4291 7.478 15.7551 4 11.7511 4C7.74813 4 4.07513 7.478 2.20913 10.926C1.93013 11.443 1.93013 12.059 2.21013 12.575ZM9.46563 11.7504C9.46563 10.4894 10.4916 9.4644 11.7516 9.4644C13.0116 9.4644 14.0376 10.4894 14.0376 11.7504C14.0376 13.0104 13.0116 14.0354 11.7516 14.0354C10.4916 14.0354 9.46563 13.0104 9.46563 11.7504ZM8.03763 11.7504C8.03763 13.7984 9.70363 15.4644 11.7516 15.4644C13.7996 15.4644 15.4656 13.7984 15.4656 11.7504C15.4656 9.7014 13.7996 8.0354 11.7516 8.0354C9.70363 8.0354 8.03763 9.7014 8.03763 11.7504Z" fill="#323232"/>
</svg>
