<?xml version="1.0" encoding="UTF-8" standalone="no"?>
<!DOCTYPE svg PUBLIC "-//W3C//DTD SVG 1.1//EN" "http://www.w3.org/Graphics/SVG/1.1/DTD/svg11.dtd">
<svg xmlns="http://www.w3.org/2000/svg" xmlns:xlink="http://www.w3.org/1999/xlink" version="1.1" width="560" height="320" viewBox="0 0 560 320">
<g enable-background="new">
<g id="Layer-1" data-name="Camada 1">
<clipPath id="cp0">
<path transform="matrix(1,0,0,-1,0,320)" d="M 0 320 L 560 320 L 560 0 L 0 0 Z "/>
</clipPath>
<g clip-path="url(#cp0)">
<path transform="matrix(1,0,0,-1,158.9941,115.4189)" d="M 0 0 C 0 -35.836 -24.479 -64.858 -64.858 -64.858 C -105.236 -64.858 -129.463 -35.836 -129.463 0 C -129.463 35.583 -104.731 64.857 -65.11 64.857 C -25.489 64.857 0 35.583 0 0 " fill="#333333"/>
<path transform="matrix(1,0,0,-1,60.3193,115.4189)" d="M 0 0 C 0 -18.928 11.356 -36.594 33.817 -36.594 C 56.277 -36.594 67.634 -18.928 67.634 0 C 67.634 18.674 54.511 36.845 33.817 36.845 C 11.609 36.845 0 18.674 0 0 " fill="#333333"/>
<path transform="matrix(1,0,0,-1,221.0737,18.006287)" d="M 0 0 L 0 -35.332 L 34.322 -35.332 L 34.322 -61.829 L -.252 -61.829 L -.252 -115.583 C -.252 -127.445 6.309 -133.249 15.899 -133.249 C 20.694 -133.249 26.246 -131.735 30.789 -129.464 L 39.369 -155.709 C 30.536 -159.243 23.217 -160.756 13.88 -161.009 C -13.123 -162.018 -30.789 -146.625 -30.789 -115.583 L -30.789 -61.829 L -54.006 -61.829 L -54.006 -35.332 L -30.789 -35.332 L -30.789 -3.281 Z " fill="#333333"/>
<path transform="matrix(1,0,0,-1,321.7627,18.006287)" d="M 0 0 L 0 -35.332 L 34.322 -35.332 L 34.322 -61.829 L -.252 -61.829 L -.252 -115.583 C -.252 -127.445 6.311 -133.249 15.9 -133.249 C 20.695 -133.249 26.246 -131.735 30.789 -129.464 L 39.369 -155.709 C 30.537 -159.243 23.219 -160.756 13.881 -161.009 C -13.121 -162.018 -30.787 -146.625 -30.787 -115.583 L -30.787 -61.829 L -54.006 -61.829 L -54.006 -35.332 L -30.787 -35.332 L -30.787 -3.281 Z " fill="#333333"/>
<path transform="matrix(1,0,0,-1,404.0303,115.4189)" d="M 0 0 C 0 -18.928 11.357 -36.594 33.816 -36.594 C 56.277 -36.594 67.635 -18.928 67.635 0 C 67.635 18.674 54.512 36.845 33.816 36.845 C 11.609 36.845 0 18.674 0 0 M 98.676 0 C 98.676 -35.836 74.195 -64.858 33.816 -64.858 C -6.561 -64.858 -30.789 -35.836 -30.789 0 C -30.789 35.583 -6.057 64.857 33.564 64.857 C 73.186 64.857 98.676 35.583 98.676 0 " fill="#333333"/>
<path transform="matrix(1,0,0,-1,143.0552,116.3862)" d="M 0 0 C 0 -26.014 -21.089 -47.103 -47.104 -47.103 C -73.118 -47.103 -94.207 -26.014 -94.207 0 C -94.207 26.016 -73.118 47.105 -47.104 47.105 C -21.089 47.105 0 26.016 0 0 " fill="#333333"/>
<path transform="matrix(1,0,0,-1,60.4351,135.1655)" d="M 0 0 L -.942 40.761 L 33.891 61.974 L 69.675 42.408 L 70.613 1.635 L 35.785 -19.558 Z " fill="#ffffff"/>
<path transform="matrix(1,0,0,-1,503.1348,271.3359)" d="M 0 0 L -23.333 -7.399 L -41.412 9.106 L -36.159 33.019 L -12.819 40.418 L 5.254 23.912 Z M -7.551 56.541 L -29.1 121.353 L -20.713 130.924 C -13.028 139.695 -11.498 152.284 -16.86 162.639 L -22.624 173.773 C -27.307 182.824 -37.823 187.184 -47.538 184.105 C -50.448 183.177 -52.067 180.064 -51.135 177.15 L -43.434 152.869 C -42.035 148.455 -44.474 143.741 -48.886 142.339 L -67.255 136.512 C -71.664 135.115 -76.371 137.555 -77.772 141.97 L -85.474 166.259 C -86.402 169.166 -89.513 170.786 -92.427 169.855 C -102.142 166.773 -108.221 157.146 -106.833 147.062 L -105.118 134.634 C -103.527 123.086 -95.022 113.681 -83.682 110.94 L -71.315 107.951 L -49.759 43.144 C -58.576 32.643 -62.019 18.018 -57.571 3.979 C -50.651 -17.828 -27.36 -29.903 -5.546 -22.985 C 16.265 -16.061 28.333 7.23 21.413 29.04 C 16.964 43.075 5.713 53.041 -7.551 56.541 " fill="#e4ae23"/>
<path transform="matrix(1,0,0,-1,33.8101,196.88379)" d="M 0 0 L .073 -3.226 C 1.209 -.77 3.775 .184 6.084 .184 C 7.44 .22 8.76 -.146 9.969 -.88 L 9.163 -2.346 C 8.21 -1.759 7.147 -1.503 6.084 -1.503 C 2.712 -1.539 .11 -4.251 .11 -7.55 L .11 -18.105 L -1.686 -18.105 L -1.686 0 Z " fill="#333333"/>
<path transform="matrix(1,0,0,-1,61.9922,205.2031)" d="M 0 0 C -.037 4.471 -2.969 6.964 -7.331 6.964 C -11.069 6.964 -14.294 4.435 -14.697 0 Z M -16.53 -.733 C -16.53 4.691 -12.425 8.612 -7.331 8.612 C -2.236 8.612 2.309 5.497 1.613 -1.576 L -14.697 -1.576 C -14.331 -5.828 -11.069 -8.283 -7.331 -8.283 C -4.948 -8.283 -2.163 -7.331 -.806 -5.535 L .477 -6.561 C -1.283 -8.87 -4.435 -10.043 -7.331 -10.043 C -12.425 -10.043 -16.53 -6.487 -16.53 -.733 " fill="#333333"/>
<path transform="matrix(1,0,0,-1,84.8584,205.9365)" d="M 0 0 C 0 5.095 -3.299 7.587 -7.404 7.587 C -11.619 7.587 -14.734 4.398 -14.734 -.037 C -14.734 -4.472 -11.545 -7.66 -7.404 -7.66 C -3.299 -7.66 0 -5.095 0 0 M -16.604 -16.604 L -16.604 9.053 L -14.844 9.053 L -14.844 4.765 C -13.415 7.514 -10.519 9.31 -7 9.31 C -2.089 9.126 1.796 5.827 1.796 0 C 1.796 -6.084 -2.309 -9.383 -7.404 -9.383 C -10.482 -9.383 -13.341 -7.88 -14.881 -4.875 L -14.881 -16.604 Z " fill="#333333"/>
<path transform="matrix(1,0,0,-1,91.854,205.9365)" d="M 0 0 C 0 -4.545 3.298 -7.587 7.403 -7.587 C 17.483 -7.587 17.483 7.55 7.403 7.55 C 3.298 7.55 0 4.545 0 0 M 16.603 9.053 L 16.603 -9.053 L 14.807 -9.053 L 14.807 -5.204 C 13.048 -8.026 10.335 -9.346 7.403 -9.346 C 2.346 -9.346 -1.796 -5.534 -1.796 0 C -1.796 5.534 2.346 9.272 7.403 9.272 C 10.335 9.272 13.305 7.917 14.807 5.095 L 14.807 9.053 Z " fill="#333333"/>
<path transform="matrix(1,0,0,-1,115.0127,196.88379)" d="M 0 0 L .073 -3.226 C 1.209 -.77 3.775 .184 6.084 .184 C 7.44 .22 8.76 -.146 9.969 -.88 L 9.163 -2.346 C 8.21 -1.759 7.147 -1.503 6.084 -1.503 C 2.712 -1.539 .11 -4.251 .11 -7.55 L .11 -18.105 L -1.686 -18.105 L -1.686 0 Z " fill="#333333"/>
<path transform="matrix(1,0,0,-1,143.4878,205.9736)" d="M 0 0 C 0 4.691 -3.335 7.734 -7.44 7.734 C -11.545 7.734 -14.88 4.691 -14.88 0 C -14.88 -4.691 -11.545 -7.513 -7.44 -7.513 C -3.335 -7.513 0 -4.691 0 0 M -16.64 0 C -16.64 5.755 -12.535 9.42 -7.44 9.42 C -2.346 9.42 1.759 5.755 1.759 0 C 1.759 -5.754 -2.346 -9.272 -7.44 -9.272 C -12.535 -9.272 -16.64 -5.754 -16.64 0 " fill="#333333"/>
<path transform="matrix(1,0,0,-1,161.8096,200.1826)" d="M 0 0 C -1.833 1.613 -3.629 1.906 -5.645 1.906 C -8.467 1.943 -11.179 .88 -11.105 -1.429 C -11.032 -3.848 -7.88 -4.324 -5.608 -4.728 C -2.382 -5.277 2.052 -5.827 1.869 -10.042 C 1.759 -14.037 -2.382 -15.1 -5.571 -15.1 C -8.76 -15.1 -11.912 -13.891 -13.488 -11.472 L -12.168 -10.299 C -10.666 -12.461 -7.954 -13.378 -5.535 -13.378 C -3.335 -13.378 0 -12.791 .11 -9.933 C .183 -7.33 -2.822 -6.816 -5.791 -6.341 C -9.31 -5.754 -12.792 -5.094 -12.828 -1.466 C -12.865 2.09 -9.31 3.629 -5.645 3.592 C -3.005 3.592 -.697 2.859 1.099 1.173 Z " fill="#333333"/>
<path transform="matrix(1,0,0,-1,193.25,205.2031)" d="M 0 0 C -.037 4.471 -2.969 6.964 -7.331 6.964 C -11.069 6.964 -14.294 4.435 -14.697 0 Z M -16.53 -.733 C -16.53 4.691 -12.425 8.612 -7.331 8.612 C -2.236 8.612 2.309 5.497 1.613 -1.576 L -14.697 -1.576 C -14.331 -5.828 -11.069 -8.283 -7.331 -8.283 C -4.948 -8.283 -2.163 -7.331 -.806 -5.535 L .477 -6.561 C -1.283 -8.87 -4.435 -10.043 -7.331 -10.043 C -12.425 -10.043 -16.53 -6.487 -16.53 -.733 " fill="#333333"/>
<path transform="matrix(1,0,0,-1,211.2754,196.88379)" d="M 0 0 L .073 -3.226 C 1.209 -.77 3.775 .184 6.084 .184 C 7.44 .22 8.76 -.146 9.969 -.88 L 9.163 -2.346 C 8.21 -1.759 7.147 -1.503 6.084 -1.503 C 2.712 -1.539 .11 -4.251 .11 -7.55 L .11 -18.105 L -1.686 -18.105 L -1.686 0 Z " fill="#333333"/>
<path transform="matrix(1,0,0,-1,239.458,205.2031)" d="M 0 0 C -.037 4.471 -2.969 6.964 -7.331 6.964 C -11.069 6.964 -14.294 4.435 -14.697 0 Z M -16.53 -.733 C -16.53 4.691 -12.425 8.612 -7.331 8.612 C -2.236 8.612 2.309 5.497 1.613 -1.576 L -14.697 -1.576 C -14.331 -5.828 -11.069 -8.283 -7.331 -8.283 C -4.948 -8.283 -2.163 -7.331 -.806 -5.535 L .477 -6.561 C -1.283 -8.87 -4.435 -10.043 -7.331 -10.043 C -12.425 -10.043 -16.53 -6.487 -16.53 -.733 " fill="#333333"/>
<path transform="matrix(1,0,0,-1,247.5898,214.9893)" d="M 0 0 L 0 16.383 L -3.702 16.383 L -3.702 17.959 L 0 17.959 L 0 19.571 C 0 23.164 1.429 25.766 5.424 25.766 C 6.78 25.766 7.99 25.289 9.016 24.52 L 8.136 23.2 C 7.147 23.787 6.451 24.116 5.351 24.116 C 3.079 24.116 1.759 22.724 1.759 19.571 L 1.759 17.959 L 7.733 17.959 L 7.733 16.383 L 1.759 16.383 L 1.759 0 Z " fill="#333333"/>
<path transform="matrix(1,0,0,-1,273.8301,205.9736)" d="M 0 0 C 0 4.691 -3.335 7.734 -7.44 7.734 C -11.545 7.734 -14.88 4.691 -14.88 0 C -14.88 -4.691 -11.545 -7.513 -7.44 -7.513 C -3.335 -7.513 0 -4.691 0 0 M -16.64 0 C -16.64 5.755 -12.535 9.42 -7.44 9.42 C -2.346 9.42 1.759 5.755 1.759 0 C 1.759 -5.754 -2.346 -9.272 -7.44 -9.272 C -12.535 -9.272 -16.64 -5.754 -16.64 0 " fill="#333333"/>
<path transform="matrix(1,0,0,-1,281.4131,196.88379)" d="M 0 0 L .073 -3.226 C 1.209 -.77 3.774 .184 6.084 .184 C 7.439 .22 8.76 -.146 9.969 -.88 L 9.162 -2.346 C 8.21 -1.759 7.146 -1.503 6.084 -1.503 C 2.712 -1.539 .109 -4.251 .109 -7.55 L .109 -18.105 L -1.687 -18.105 L -1.687 0 Z " fill="#333333"/>
<path transform="matrix(1,0,0,-1,320.9199,214.9893)" d="M 0 0 L 0 10.849 C 0 14.33 -2.346 16.786 -5.791 16.786 C -9.236 16.786 -11.618 14.221 -11.618 10.738 L -11.618 0 L -13.414 0 L -13.414 10.738 C -13.414 14.221 -15.797 16.75 -19.242 16.75 C -22.687 16.75 -25.033 14.221 -25.033 10.738 L -25.033 0 L -26.829 0 L -26.829 18.105 L -25.143 18.105 L -25.106 15.101 C -23.86 17.482 -21.551 18.473 -19.205 18.473 C -16.456 18.473 -13.561 17.226 -12.498 14.001 C -11.398 16.97 -8.576 18.473 -5.791 18.473 C -1.356 18.473 1.796 15.356 1.796 10.849 L 1.796 0 Z " fill="#333333"/>
<path transform="matrix(1,0,0,-1,328.5732,205.9365)" d="M 0 0 C 0 -4.545 3.299 -7.587 7.403 -7.587 C 17.482 -7.587 17.482 7.55 7.403 7.55 C 3.299 7.55 0 4.545 0 0 M 16.604 9.053 L 16.604 -9.053 L 14.808 -9.053 L 14.808 -5.204 C 13.048 -8.026 10.336 -9.346 7.403 -9.346 C 2.346 -9.346 -1.796 -5.534 -1.796 0 C -1.796 5.534 2.346 9.272 7.403 9.272 C 10.336 9.272 13.305 7.917 14.808 5.095 L 14.808 9.053 Z " fill="#333333"/>
<path transform="matrix(1,0,0,-1,362.4707,200.1826)" d="M 0 0 C -1.832 1.613 -3.628 1.906 -5.644 1.906 C -8.466 1.943 -11.179 .88 -11.105 -1.429 C -11.032 -3.848 -7.88 -4.324 -5.607 -4.728 C -2.382 -5.277 2.053 -5.827 1.869 -10.042 C 1.76 -14.037 -2.382 -15.1 -5.57 -15.1 C -8.76 -15.1 -11.911 -13.891 -13.487 -11.472 L -12.168 -10.299 C -10.665 -12.461 -7.953 -13.378 -5.534 -13.378 C -3.335 -13.378 0 -12.791 .11 -9.933 C .184 -7.33 -2.822 -6.816 -5.791 -6.341 C -9.31 -5.754 -12.791 -5.094 -12.828 -1.466 C -12.864 2.09 -9.31 3.629 -5.644 3.592 C -3.005 3.592 -.696 2.859 1.1 1.173 Z " fill="#333333"/>
</g>
</g>
</g>
</svg>
