<svg
    xmlns="http://www.w3.org/2000/svg"
    viewBox="0 0 40 40"
    id="vector">
    <path
        id="path"
        d="M 20 20 M 0 20 C 0 14.698 2.109 9.607 5.858 5.858 C 9.607 2.109 14.698 0 20 0 C 25.302 0 30.393 2.109 34.142 5.858 C 37.891 9.607 40 14.698 40 20 C 40 25.302 37.891 30.393 34.142 34.142 C 30.393 37.891 25.302 40 20 40 C 14.698 40 9.607 37.891 5.858 34.142 C 2.109 30.393 0 25.302 0 20"
        fill="#dedede"/>
    <path
        id="path_1"
        d="M 18.15 9.54 L 18.63 10.36 C 18.71 10.33 18.79 10.3 18.87 10.27 C 18.98 9.52 19.08 8.77 19.19 8 C 19.5 8.54 19.72 9.07 20.07 9.5 C 20.57 10.15 21.25 10.58 22.03 10.89 C 23.28 11.39 23.98 12.37 24.24 13.67 C 24.27 13.84 24.22 14.02 24.24 14.19 C 24.28 14.57 24.37 14.93 24.37 15.31 C 24.38 15.89 24.42 16.5 24.31 17.07 C 24.15 17.92 23.93 18.76 23.63 19.56 C 23.42 20.13 23.04 20.62 22.74 21.15 C 22.67 21.27 22.57 21.39 22.57 21.51 C 22.56 22.19 22.52 22.87 22.59 23.53 C 22.68 24.36 23.27 24.83 24 25.11 C 24.74 25.39 25.5 25.62 26.25 25.88 C 28.01 26.48 28.68 26.95 29.88 28.48 C 29.72 28.62 29.56 28.78 29.38 28.92 C 27.55 30.31 25.43 31.03 23.2 31.42 C 20.22 31.94 17.26 31.86 14.35 30.93 C 12.85 30.45 11.49 29.72 10.27 28.71 C 9.92 28.43 9.92 28.19 10.22 27.89 C 10.93 27.17 11.71 26.53 12.69 26.2 C 13.66 25.87 14.63 25.56 15.6 25.22 C 16.94 24.73 17.32 24.18 17.32 22.77 C 17.32 22.54 17.31 22.31 17.32 22.08 C 17.35 21.56 17.32 21.07 16.87 20.69 C 16.69 20.54 16.6 20.27 16.53 20.03 C 16.16 18.76 15.81 17.47 15.46 16.19 C 15.42 16.06 15.36 15.88 15.41 15.78 C 15.9 14.92 15.61 13.96 15.77 13.06 C 15.91 12.24 16.39 11.63 17.01 11.15 C 17.51 10.75 17.98 10.39 17.94 9.65 C 18.01 9.62 18.08 9.58 18.15 9.54"
        fill="#a9a9a9"/>
</svg>
